<svg width="128" height="128" viewBox="0 0 128 128" fill="none" xmlns="http://www.w3.org/2000/svg">
  <defs>
    <linearGradient id="cloudMain" x1="0%" y1="0%" x2="100%" y2="100%">
      <stop offset="0%" stop-color="#20F090" />
      <stop offset="50%" stop-color="#0C7A45" />
      <stop offset="100%" stop-color="#052918" />
    </linearGradient>
    <linearGradient id="cloudBack" x1="0%" y1="0%" x2="100%" y2="100%">
      <stop offset="0%" stop-color="#075A35" />
      <stop offset="100%" stop-color="#02120A" />
    </linearGradient>
    <filter id="glowCloud" x="-20%" y="-20%" width="140%" height="140%">
      <feDropShadow dx="2" dy="4" stdDeviation="3" flood-color="#000000" flood-opacity="0.6"/>
    </filter>
  </defs>
  <path d="M 35,95 A 20 20 0 0 1 45 60 A 25 25 0 0 1 85 60 A 20 20 0 0 1 95 95 Z" fill="url(#cloudBack)" />
  <path d="M 30,88 A 20 20 0 0 1 40 53 A 25 25 0 0 1 80 53 A 20 20 0 0 1 90 88 Z" fill="url(#cloudMain)" filter="url(#glowCloud)" />
</svg>
